# xmcd
#
# Track frame offsets:
#	150
#	15132
#	35622
#	53272
#	69270
#	88072
#	104991
#	120002
#	134966
#
# Disc length: 2053 seconds
#
# Revision: 1
# Processed by: cddbd v1.5.2PL0 Copyright (c) Steve Scherf et al.
# Submitted via: audiograbber 1.83.01
#
DISCID=6e080309
DTITLE=Singer's Solution - SSC417
DYEAR=2012
DGENRE=Karaoke
TTITLE0=Blake Shelton - Over
TTITLE1=Rascal Flatts - Come Wake Me Up
TTITLE2=Justin Lynch - Cowboys and Angels
TTITLE3=Little Big Town - Pontoon
TTITLE4=The Farm, Inc. - Home Sweet Home
TTITLE5=Chris Young - Neon
TTITLE6=Miranda Lambert - Fastest Girl In Town
TTITLE7=Easton Corbin - Lovin' You Is Fun
TTITLE8=Big and Rich - That's Why I Pray
EXTD=
EXTT0=
EXTT1=
EXTT2=
EXTT3=
EXTT4=
EXTT5=
EXTT6=
EXTT7=
EXTT8=
PLAYORDER=
